<svg version="1.1" id="Layer_1" xmlns="http://www.w3.org/2000/svg" xmlns:xlink="http://www.w3.org/1999/xlink" x="0px" y="0px"
	width="16" height="28" viewBox="0 0 271 347" enable-background="new 0 0 271 347" xml:space="preserve">
<path fill="#FFFFFF" opacity="1.000000" stroke="none" 
	d="
M155.000000,1.000000 
	C193.970413,1.000000 232.940811,1.000000 271.955627,1.000000 
	C271.955627,116.549278 271.955627,232.098587 271.955627,348.000000 
	C234.646515,348.000000 197.291916,348.000000 159.465424,347.665710 
	C159.016891,346.663269 159.040268,345.995087 159.378510,345.224213 
	C160.131836,345.091888 160.570282,345.062317 161.177399,345.257568 
	C161.902679,345.005493 162.459274,344.528534 163.253357,343.911621 
	C163.967484,343.498718 164.444122,343.225769 165.250031,342.952820 
	C166.382858,342.628571 167.186386,342.304260 168.344849,341.945557 
	C172.822800,338.532349 173.475784,336.200989 170.960495,333.625061 
	C171.369965,331.846924 171.737534,330.433075 172.457916,328.967834 
	C173.442780,328.247986 174.631104,327.571503 174.621521,326.912445 
	C174.516678,319.705536 174.360718,312.492126 173.872681,305.303986 
	C173.771088,303.807404 172.252396,302.407013 171.287689,300.539062 
	C171.105865,298.084259 171.023102,296.052765 171.172058,293.868347 
	C171.028458,293.131134 170.653107,292.546783 170.187744,291.580963 
	C169.993042,290.159485 169.888382,289.119507 170.079498,287.887207 
	C169.324631,285.785980 168.273987,283.877075 167.133591,281.642639 
	C166.949951,280.648773 166.856064,279.980408 166.931808,278.977173 
	C167.509201,274.873016 164.555954,272.104340 158.987823,271.013245 
	C159.001617,271.003632 158.977036,271.030579 158.987366,270.638336 
	C160.337906,268.208801 161.678116,266.171509 163.351471,264.090515 
	C164.131958,264.054810 164.579315,264.062836 165.294449,264.341675 
	C169.438156,265.494751 172.934021,265.315521 175.345612,261.113922 
	C176.708969,260.635254 177.755341,260.265625 179.157166,259.907227 
	C180.347733,258.980347 181.182861,258.042267 182.213379,257.034058 
	C182.408737,256.963989 182.819168,256.901642 183.206818,256.931641 
	C185.233643,256.289703 187.258179,256.007568 188.423157,254.855927 
	C190.244766,253.055145 194.155502,251.477371 190.734512,247.488266 
	C191.470123,245.734711 192.145752,244.321091 193.176117,242.912109 
	C194.358459,241.967468 195.186066,241.018188 196.209824,240.007050 
	C196.405975,239.945190 196.814789,239.899918 197.229843,239.928925 
	C199.412796,239.631271 201.360184,239.668304 202.911407,238.902649 
	C206.196243,237.281342 209.421143,235.436981 212.342499,233.246460 
	C213.156021,232.636475 212.820496,230.494064 213.261169,228.831940 
	C216.670425,225.738663 219.830627,222.868103 223.325867,219.953796 
	C224.074295,219.210129 224.487686,218.510193 224.987427,217.610962 
	C225.233566,217.156601 225.453568,216.974228 226.127579,216.862259 
	C229.285904,214.009705 231.419418,203.394241 229.536713,200.554916 
	C228.957138,199.680862 227.382538,199.466583 226.067871,198.658417 
	C224.589600,196.469849 223.581757,194.284286 221.961456,192.742340 
	C219.385849,190.291306 219.470245,188.262604 221.498810,185.501877 
	C224.200928,181.824478 226.480423,177.836563 229.296570,173.938507 
	C233.419235,165.988861 237.240768,158.107269 240.867020,150.136841 
	C241.212189,149.378159 240.336151,148.063889 240.037445,146.676483 
	C240.137970,145.913834 240.228088,145.482239 240.636017,144.952972 
	C241.312149,142.573410 241.670456,140.291489 242.023560,137.610321 
	C242.145813,136.159790 242.273270,135.108536 242.678772,133.973190 
	C242.991867,132.932083 243.026932,131.975052 243.037125,130.573669 
	C243.119720,127.767853 243.227188,125.406395 243.668381,122.924927 
	C243.948792,120.521255 243.895462,118.237595 243.834091,115.536835 
	C243.559647,111.410469 243.293259,107.701218 243.270691,103.802376 
	C243.118668,102.723846 242.722839,101.834892 242.234131,100.559830 
	C242.093781,99.116234 242.046341,98.058746 242.271851,96.768555 
	C241.816513,94.339645 241.088242,92.143463 240.274994,89.624191 
	C240.156281,88.857948 240.122528,88.414795 240.346344,87.732498 
	C240.044968,84.183258 239.817520,80.766106 238.796707,77.605164 
	C238.228653,75.846199 236.338821,74.514099 234.980530,72.712418 
	C234.879440,72.058212 234.842514,71.681198 234.865952,70.902634 
	C231.737564,64.161530 228.582764,57.804188 225.288620,51.519875 
	C225.052734,51.069836 223.797455,51.154137 223.008270,50.995300 
	C223.000381,51.000610 223.010178,50.985531 223.009979,50.585369 
	C223.547913,44.982182 219.458206,43.759048 215.683289,41.856220 
	C212.882706,38.872250 210.378387,36.042477 207.911591,32.827263 
	C207.677795,29.911381 207.037079,27.989386 203.660095,29.977356 
	C201.887817,28.615786 200.442276,27.313097 198.950378,25.674629 
	C198.199158,24.933468 197.494293,24.528086 196.516174,24.076733 
	C195.822281,23.699961 195.401642,23.369160 194.942810,22.696411 
	C194.189819,21.950613 193.474976,21.546764 192.566071,21.127666 
	C192.372009,21.112419 192.000290,20.996662 191.963989,20.641415 
	C190.837357,19.595690 189.747009,18.905212 188.330811,18.191818 
	C187.005951,17.768379 186.006943,17.367857 184.955170,16.624662 
	C182.828079,15.255205 180.753723,14.228419 178.397537,13.192162 
	C177.747009,13.110636 177.378311,13.038582 176.967438,12.610300 
	C174.774994,8.868950 171.648651,8.208353 167.666031,9.019137 
	C166.560806,8.672077 165.773422,8.356635 164.953156,7.671907 
	C163.433472,2.499135 160.847351,3.553311 157.667313,6.006121 
	C156.535095,5.718588 155.734756,5.428650 154.950729,4.725083 
	C154.978027,3.207637 154.989014,2.103818 155.000000,1.000000 
z"/>
<path fill="#FDFEFE" opacity="1.000000" stroke="none" 
	d="
M152.000000,348.000000 
	C101.702896,348.000000 51.405792,348.000000 1.108686,348.000000 
	C1.072455,347.869690 1.004473,347.739349 1.004468,347.609039 
	C0.999960,232.192184 1.000000,116.775314 1.000000,1.000000 
	C37.353443,1.000000 73.708061,1.000000 110.532547,1.354506 
	C110.989120,2.415918 110.975822,3.122825 110.597878,3.890561 
	C109.494644,3.985362 108.756050,4.019333 107.827225,3.792651 
	C106.749687,3.980914 105.862381,4.429830 104.651093,4.930582 
	C103.890633,5.006965 103.454155,5.031511 102.782578,4.771173 
	C99.370193,5.672729 94.678383,2.750144 92.648392,8.089810 
	C88.614708,9.518143 84.933357,10.861773 80.915009,12.032677 
	C77.282562,11.177743 69.826782,16.009569 67.823090,20.256832 
	C66.859558,20.729647 66.078049,20.953619 64.930717,21.143053 
	C63.705864,22.061953 62.846836,23.015390 61.794685,24.239811 
	C55.415565,30.014292 49.229565,35.517788 42.706501,41.054794 
	C41.941051,41.777008 41.512669,42.465706 40.932739,43.453743 
	C35.792328,51.390553 29.926088,58.603989 25.989155,66.749863 
	C16.495937,86.392220 12.360094,107.139282 14.935216,129.159744 
	C17.538202,151.418518 25.802101,171.198593 39.537663,188.664536 
	C42.515564,192.451202 41.990990,193.840652 38.398026,196.244095 
	C29.741871,202.034515 27.533176,211.194946 32.800068,220.169479 
	C35.030033,223.969238 37.897114,227.803864 41.392399,230.374954 
	C51.531357,237.832977 62.152473,244.633835 72.539101,251.758591 
	C74.214699,252.907959 75.658463,254.395325 77.339523,255.838120 
	C75.974380,257.401062 75.081215,258.374969 74.241325,259.392883 
	C67.056053,268.101105 60.537167,276.965973 62.911007,289.427887 
	C63.246166,291.187347 61.503193,294.246735 59.834679,295.304108 
	C55.805412,297.857605 51.427895,300.189178 46.872162,301.517029 
	C37.003391,304.393433 26.895145,306.436646 16.961718,309.106628 
	C9.796371,311.032623 4.184378,315.082153 2.721802,322.863495 
	C1.601817,328.822174 4.391263,333.440063 9.025829,337.442505 
	C11.711678,338.555878 14.345909,339.312408 17.352974,340.062744 
	C18.464655,340.146484 19.203503,340.236481 20.079437,340.677551 
	C24.249710,342.182404 28.293249,343.502472 32.418427,340.215881 
	C33.522991,340.098999 34.263901,340.058075 35.161304,340.235962 
	C35.901901,340.082703 36.486004,339.710632 37.431747,339.252625 
	C38.534325,339.130859 39.275265,339.095032 40.208443,339.300293 
	C41.288120,339.126740 42.175560,338.712128 43.443352,338.203491 
	C46.121960,337.674011 48.420223,337.238586 51.125542,336.863342 
	C57.437347,334.966522 63.358292,333.055634 69.226387,330.994324 
	C69.960518,330.736450 70.415611,329.684174 71.269615,328.854279 
	C72.300285,328.434479 73.061325,328.160400 74.150337,327.896362 
	C75.000923,327.330688 75.523529,326.754944 76.333305,326.098816 
	C77.014755,325.970703 77.409035,325.923004 78.144379,325.887451 
	C78.995102,325.276550 79.504753,324.653503 80.202911,323.760010 
	C82.185875,322.610504 83.980331,321.731415 86.148064,320.877319 
	C88.007751,319.589935 89.494171,318.277588 91.150627,316.706787 
	C92.497833,315.602356 93.674995,314.756348 95.207184,313.914154 
	C96.373833,312.943512 97.185463,311.969055 98.274567,310.934753 
	C98.928505,310.840057 99.304970,310.805206 100.126770,310.844177 
	C102.731445,310.365479 104.890785,309.812897 107.443924,309.198822 
	C108.899239,309.117035 109.960770,309.096741 111.286835,309.344482 
	C113.714546,309.134369 115.877716,308.656128 118.411125,308.125488 
	C119.528320,308.076263 120.275261,308.079437 121.240982,308.330872 
	C122.659477,308.149750 123.859207,307.720367 125.490089,307.225342 
	C133.746536,306.769684 133.889816,306.893097 133.665070,314.219238 
	C133.817719,315.298279 134.201950,316.186066 134.676727,317.462280 
	C134.803925,318.912567 134.840546,319.974426 134.624695,321.286560 
	C135.138016,324.045563 135.903778,326.554291 136.751190,329.381836 
	C136.876877,330.136658 136.920898,330.572632 136.719559,331.231140 
	C136.977600,335.418182 137.310059,339.482574 142.253113,341.084839 
	C142.736557,341.384155 142.922104,341.638672 143.058578,342.295044 
	C143.800705,343.044128 144.509064,343.451843 145.542145,343.917358 
	C147.259628,344.615356 148.652390,345.255493 150.174698,346.158875 
	C150.869492,346.948090 151.434738,347.474060 152.000000,348.000000 
z"/>
<path fill="#E9F4FC" opacity="1.000000" stroke="none" 
	d="
M154.531342,1.000000 
	C154.989014,2.103818 154.978027,3.207637 154.532135,4.710155 
	C142.721786,4.361345 131.346359,3.613835 119.977478,2.555292 
	C119.989349,1.829507 119.994675,1.414753 120.000000,1.000000 
	C131.354233,1.000000 142.708450,1.000000 154.531342,1.000000 
z"/>
<path fill="#E5F2FC" opacity="1.000000" stroke="none" 
	d="
M152.437500,348.000000 
	C151.434738,347.474060 150.869492,346.948090 150.597534,346.172607 
	C153.615097,345.724365 156.339355,345.525665 159.063629,345.326965 
	C159.040268,345.995087 159.016891,346.663269 158.996765,347.665710 
	C156.958328,348.000000 154.916672,348.000000 152.437500,348.000000 
z"/>
<path fill="#E9F4FC" opacity="1.000000" stroke="none" 
	d="
M110.962524,3.829731 
	C110.975822,3.122825 110.989120,2.415918 111.001205,1.354506 
	C111.750000,1.000000 112.500000,1.000000 113.727913,1.261212 
	C114.470856,2.015742 114.735878,2.509060 114.751648,3.257315 
	C113.322441,3.618078 112.142479,3.723904 110.962524,3.829731 
z"/>
<path fill="#FDFEFE" opacity="1.000000" stroke="none" 
	d="
M115.000900,3.002379 
	C114.735878,2.509060 114.470856,2.015742 114.102913,1.261212 
	C115.714203,1.000000 117.428413,1.000000 119.571304,1.000000 
	C119.994675,1.414753 119.989349,1.829507 119.566055,2.605310 
	C117.765694,2.978366 116.383301,2.990373 115.000900,3.002379 
z"/>
<path fill="#95BFF6" opacity="1.000000" stroke="none" 
	d="
M114.751648,3.257315 
	C116.383301,2.990373 117.765694,2.978366 119.559517,2.916342 
	C131.346359,3.613835 142.721786,4.361345 154.515808,5.123783 
	C155.734756,5.428650 156.535095,5.718588 157.915283,6.270365 
	C160.658752,7.035200 162.822388,7.538198 164.986023,8.041195 
	C165.773422,8.356635 166.560806,8.672077 167.882980,9.288045 
	C171.281708,10.714558 174.145676,11.840546 177.009628,12.966530 
	C177.378311,13.038582 177.747009,13.110636 178.540878,13.501635 
	C180.980026,14.869498 182.993973,15.918416 185.007935,16.967333 
	C186.006943,17.367857 187.005951,17.768379 188.448914,18.504425 
	C189.928680,19.558851 190.964478,20.277756 192.000290,20.996662 
	C192.000290,20.996662 192.372009,21.112419 192.676437,21.425371 
	C193.647583,22.171667 194.314285,22.605011 194.980988,23.038357 
	C195.401642,23.369160 195.822281,23.699961 196.615021,24.380051 
	C197.656982,25.156363 198.326859,25.583385 198.996719,26.010406 
	C200.442276,27.313097 201.887817,28.615786 203.799927,30.270840 
	C205.469025,31.486374 206.671539,32.349541 207.874054,33.212708 
	C210.378387,36.042477 212.882706,38.872250 215.726425,42.197792 
	C218.380600,45.457554 220.695389,48.221542 223.010178,50.985531 
	C223.010178,50.985531 223.000381,51.000610 223.050461,51.348701 
	C227.002228,58.232590 230.903900,64.768387 234.805573,71.304184 
	C234.842514,71.681198 234.879440,72.058212 234.970230,73.099960 
	C236.712311,78.500336 238.400543,83.235992 240.088776,87.971642 
	C240.122528,88.414795 240.156281,88.857948 240.208038,89.997719 
	C240.817001,92.796646 241.407944,94.898956 241.998886,97.001266 
	C242.046341,98.058746 242.093781,99.116234 242.152222,100.891541 
	C242.451096,102.403572 242.738983,103.197769 243.026871,103.991959 
	C243.293259,107.701218 243.559647,111.410469 243.595322,115.845306 
	C243.354614,118.728912 243.344650,120.886925 243.334656,123.044945 
	C243.227188,125.406395 243.119720,127.767853 242.776001,130.787445 
	C242.493393,132.316147 242.447052,133.186707 242.400726,134.057266 
	C242.273270,135.108536 242.145813,136.159790 241.750961,137.855011 
	C241.095108,140.682846 240.706650,142.866730 240.318207,145.050629 
	C240.228088,145.482239 240.137970,145.913834 239.758118,146.912949 
	C238.727997,149.826324 238.148788,152.238480 237.216705,154.505554 
	C234.534668,161.029114 231.710068,167.494064 228.941483,173.982025 
	C226.480423,177.836563 224.200928,181.824478 221.498810,185.501877 
	C219.470245,188.262604 219.385849,190.291306 221.961456,192.742340 
	C223.581757,194.284286 224.589600,196.469849 226.040878,199.042236 
	C229.865875,205.539230 226.827667,211.174911 225.733826,216.864532 
	C225.453568,216.974228 225.233566,217.156601 224.680328,217.703140 
	C223.854843,218.662262 223.422836,219.329895 222.990829,219.997543 
	C219.830627,222.868103 216.670425,225.738663 212.909805,228.849335 
	C207.144516,232.692947 201.979645,236.296432 196.814789,239.899918 
	C196.814789,239.899918 196.405975,239.945190 195.872147,240.015930 
	C194.499329,241.026932 193.660339,241.967209 192.821350,242.907471 
	C192.145752,244.321091 191.470123,245.734711 190.421814,247.568832 
	C187.639114,250.960114 185.229141,253.930878 182.819168,256.901642 
	C182.819168,256.901642 182.408737,256.963989 181.877533,257.037476 
	C180.498123,258.039276 179.649918,258.967621 178.801727,259.895996 
	C177.755341,260.265625 176.708969,260.635254 174.969299,261.087708 
	C171.192902,262.137299 168.109787,263.104065 165.026672,264.070862 
	C164.579315,264.062836 164.131958,264.054810 162.921906,264.027222 
	C159.061401,263.616943 155.846069,263.619446 152.895126,262.737396 
	C149.090424,261.600128 147.489166,263.220490 146.147003,266.739624 
	C150.606033,268.230927 154.791534,269.630737 158.977036,271.030579 
	C158.977036,271.030579 159.001617,271.003632 159.128662,271.315094 
	C161.757858,274.188385 164.260025,276.750244 166.762192,279.312073 
	C166.856064,279.980408 166.949951,280.648773 167.110626,281.993134 
	C168.046188,284.472626 168.914948,286.276062 169.783722,288.079529 
	C169.888382,289.119507 169.993042,290.159485 170.120895,291.870026 
	C170.409500,293.034149 170.674927,293.527679 170.940338,294.021240 
	C171.023102,296.052765 171.105865,298.084259 171.191101,300.953186 
	C171.497437,310.866791 171.801270,319.943024 172.105103,329.019226 
	C171.737534,330.433075 171.369965,331.846924 170.711517,333.839691 
	C169.595444,336.240051 168.770233,338.061462 167.618790,339.957855 
	C166.501953,341.006134 165.711349,341.979492 164.920746,342.952820 
	C164.444122,343.225769 163.967484,343.498718 162.950470,343.905701 
	C161.942978,344.370758 161.475861,344.701752 161.008728,345.032715 
	C160.570282,345.062317 160.131836,345.091888 159.378510,345.224243 
	C156.339355,345.525665 153.615097,345.724365 150.467987,345.909363 
	C148.652390,345.255493 147.259628,344.615356 145.436142,343.619873 
	C144.345230,342.827576 143.685013,342.390594 143.024811,341.953613 
	C142.922104,341.638672 142.736557,341.384155 142.205444,340.731598 
	C140.283447,337.184998 138.624191,334.096802 136.964935,331.008636 
	C136.920898,330.572632 136.876877,330.136658 136.834991,328.991486 
	C136.183807,325.866974 135.530487,323.451599 134.877167,321.036255 
	C134.840546,319.974426 134.803925,318.912567 134.795532,317.131592 
	C134.514709,315.617615 134.205688,314.822784 133.896652,314.027985 
	C133.889816,306.893097 133.746536,306.769684 125.126709,307.134583 
	C123.228859,307.433868 122.125534,307.758209 121.022209,308.082581 
	C120.275261,308.079437 119.528320,308.076263 117.992722,308.062622 
	C115.143486,308.393585 113.082893,308.735016 111.022293,309.076416 
	C109.960770,309.096741 108.899239,309.117035 107.024826,309.113861 
	C104.035103,309.650360 101.858269,310.210358 99.681427,310.770325 
	C99.304970,310.805206 98.928505,310.840057 97.940140,310.965210 
	C96.502869,312.007080 95.677513,312.958710 94.852158,313.910339 
	C93.674995,314.756348 92.497833,315.602356 90.807686,316.746033 
	C88.788063,318.313293 87.281425,319.582825 85.774788,320.852356 
	C83.980331,321.731415 82.185875,322.610504 79.884804,323.785828 
	C78.853233,324.679810 78.328278,325.277527 77.803314,325.875244 
	C77.409035,325.923004 77.014755,325.970703 76.015892,326.092529 
	C74.881660,326.739838 74.352005,327.313049 73.822357,327.886292 
	C73.061325,328.160400 72.300285,328.434479 70.893036,328.885834 
	C66.952332,330.172668 63.604900,331.148804 60.378113,332.428986 
	C57.096333,333.730988 53.933441,335.332703 50.718491,336.803162 
	C48.420223,337.238586 46.121960,337.674011 43.106842,338.122772 
	C41.598721,338.443787 40.807453,338.751495 40.016197,339.059204 
	C39.275265,339.095032 38.534325,339.130859 37.138832,339.168610 
	C35.991116,339.452728 35.497963,339.734924 35.004810,340.017151 
	C34.263901,340.058075 33.522991,340.098999 31.958981,340.126038 
	C27.404707,340.183563 23.673529,340.255005 19.942350,340.326447 
	C19.203503,340.236481 18.464655,340.146484 17.133194,339.786316 
	C14.018459,338.705994 11.496336,337.895813 8.974213,337.085663 
	C4.391263,333.440063 1.601817,328.822174 2.721802,322.863495 
	C4.184378,315.082153 9.796371,311.032623 16.961718,309.106628 
	C26.895145,306.436646 37.003391,304.393433 46.872162,301.517029 
	C51.427895,300.189178 55.805412,297.857605 59.834679,295.304108 
	C61.503193,294.246735 63.246166,291.187347 62.911007,289.427887 
	C60.537167,276.965973 67.056053,268.101105 74.241325,259.392883 
	C75.081215,258.374969 75.974380,257.401062 77.339523,255.838120 
	C75.658463,254.395325 74.214699,252.907959 72.539101,251.758591 
	C62.152473,244.633835 51.531357,237.832977 41.392399,230.374954 
	C37.897114,227.803864 35.030033,223.969238 32.800068,220.169479 
	C27.533176,211.194946 29.741871,202.034515 38.398026,196.244095 
	C41.990990,193.840652 42.515564,192.451202 39.537663,188.664536 
	C25.802101,171.198593 17.538202,151.418518 14.935216,129.159744 
	C12.360094,107.139282 16.495937,86.392220 25.989155,66.749863 
	C29.926088,58.603989 35.792328,51.390553 41.241013,43.370117 
	C42.148411,42.331863 42.595989,41.676575 43.043568,41.021286 
	C49.229565,35.517788 55.415565,30.014292 62.128899,24.211098 
	C63.536339,23.000132 64.416443,22.088863 65.296547,21.177593 
	C66.078049,20.953619 66.859558,20.729647 68.174751,20.218273 
	C72.889633,17.355715 77.070824,14.780560 81.252014,12.205404 
	C84.933357,10.861773 88.614708,9.518143 93.037598,8.093590 
	C96.858650,7.027130 99.938171,6.041593 103.017685,5.056056 
	C103.454155,5.031511 103.890633,5.006965 104.985809,4.975109 
	C106.435493,4.662968 107.226479,4.358137 108.017464,4.053305 
	C108.756050,4.019333 109.494644,3.985362 110.597878,3.890561 
	C112.142479,3.723904 113.322441,3.618078 114.751648,3.257315 
M200.274750,205.999557 
	C199.183533,207.007324 198.092316,208.015106 196.632294,209.136734 
	C196.632294,209.136734 196.249832,209.188629 195.527039,209.117111 
	C194.680084,210.073273 193.833130,211.029419 192.658936,212.468597 
	C192.063614,212.964584 191.468292,213.460587 190.213593,214.084152 
	C187.801697,217.350052 189.706833,223.891953 194.657959,227.063904 
	C195.111862,227.072693 195.565750,227.081467 196.375259,227.513870 
	C196.924698,227.027588 197.474152,226.541306 198.407654,225.930710 
	C198.407654,225.930710 198.804291,225.855682 199.332993,225.734573 
	C199.523987,225.441696 199.714996,225.148834 200.262192,224.435760 
	C200.768341,224.234406 201.274475,224.033035 202.462280,223.875732 
	C202.982452,223.260956 203.502609,222.646179 204.534943,221.624756 
	C206.647766,220.055450 208.760590,218.486145 211.590118,216.913345 
	C213.003418,215.202057 214.416718,213.490784 216.119507,211.242661 
	C216.415436,210.498352 216.711365,209.754059 217.344528,208.844208 
	C217.413208,208.741333 217.563705,208.595032 217.536194,208.543228 
	C217.426590,208.336731 217.261551,208.159653 217.096176,207.174835 
	C217.095688,206.112015 217.095200,205.049194 217.510757,203.637970 
	C217.065872,203.071671 216.620987,202.505371 215.737564,201.362274 
	C211.585938,198.156647 208.608749,202.276978 204.353622,203.025116 
	C203.236542,204.018143 202.119461,205.011185 201.000000,206.000000 
	C201.000000,206.000000 201.003693,206.002563 200.274750,205.999557 
M75.124908,240.950455 
	C75.124908,240.950455 75.092972,240.875580 75.324028,241.537872 
	C77.653244,242.626297 79.982460,243.714722 82.874207,244.856995 
	C83.240021,244.945801 83.605843,245.034607 84.071991,245.800400 
	C84.976082,246.695328 86.267479,247.435883 86.699188,248.519073 
	C87.466911,250.445358 88.770920,253.226929 87.985832,254.507858 
	C85.354828,258.800659 81.661972,262.428558 78.842201,266.624512 
	C76.876167,269.550110 75.674644,272.989471 74.098343,276.797546 
	C74.030235,277.190979 73.962128,277.584412 73.212730,278.120819 
	C70.963882,280.923340 69.738617,283.657166 73.897972,286.720825 
	C74.333069,288.036957 74.768166,289.353119 75.146339,291.404633 
	C75.837410,291.894318 76.528481,292.384003 77.687546,293.127472 
	C78.122292,293.433380 78.557030,293.739288 79.072868,294.754913 
	C80.758446,296.163086 82.333885,298.604095 84.148987,298.797668 
	C91.360298,299.566681 98.645096,299.682098 105.907005,299.883911 
	C106.602234,299.903259 107.327522,298.841034 108.860435,298.143555 
	C110.247955,298.122040 111.635468,298.100525 113.578575,298.624237 
	C115.359863,298.594849 117.149956,298.668427 118.920784,298.516815 
	C124.320625,298.054657 129.716843,297.542114 135.107071,296.978271 
	C138.929337,296.578522 140.602386,298.614563 140.970932,302.060822 
	C141.390274,305.981720 141.317459,309.993011 142.132553,313.821472 
	C142.742111,316.684692 144.420288,319.320374 145.806717,322.828735 
	C145.877502,323.883423 145.948273,324.938080 145.530716,326.364502 
	C146.271561,327.590759 147.012421,328.817017 148.090729,330.585297 
	C148.408401,331.360382 148.726089,332.135498 149.121521,333.664215 
	C151.766083,337.215363 155.103073,336.522125 158.232925,334.772003 
	C161.541107,332.922150 162.630142,327.676971 161.028534,322.104675 
	C161.061279,318.388733 161.094025,314.672821 161.667786,310.355652 
	C160.703308,301.860474 159.798584,293.357361 158.669220,284.884155 
	C158.571060,284.147736 156.992325,283.608643 155.982101,282.561371 
	C155.982101,282.561371 155.927124,282.131592 155.916779,281.387390 
	C152.989227,276.750488 148.615936,275.215851 142.372681,276.915253 
	C141.927017,276.884247 141.481369,276.853241 140.928986,276.273773 
	C140.273300,276.452728 139.617615,276.631683 138.045029,276.908325 
	C134.023636,276.916077 130.002228,276.923828 125.400566,276.372284 
	C123.754669,276.248871 122.009834,276.426331 120.487915,275.925842 
	C118.583412,275.299591 116.862076,274.116302 115.061676,273.173462 
	C116.613785,271.459534 118.087494,269.664246 119.749054,268.063965 
	C120.663750,267.183014 121.894333,266.630005 123.350700,265.836517 
	C123.350700,265.836517 123.730354,265.833557 124.523026,265.936584 
	C129.332336,262.928986 134.141647,259.921387 138.968811,256.178741 
	C138.930740,255.200333 138.892670,254.221924 138.901993,252.518265 
	C137.643143,251.335480 136.384277,250.152679 134.964615,248.427475 
	C134.913452,248.054398 134.862289,247.681320 134.872620,246.500458 
	C133.868423,242.445465 132.919617,238.375000 131.797668,234.352859 
	C131.637619,233.779068 130.638870,233.439224 129.760956,232.566010 
	C129.512955,232.343582 129.264954,232.121170 128.864090,231.166138 
	C126.627472,230.448959 124.395195,229.134689 122.153481,229.118393 
	C112.647514,229.049240 103.410683,227.937851 94.495842,224.376007 
	C87.979378,221.772400 81.302414,219.570450 74.323433,217.196289 
	C74.323433,217.196289 73.962624,217.099304 73.922104,216.370010 
	C69.547134,213.618149 65.172165,210.866302 60.396572,208.079086 
	C60.396572,208.079086 60.009926,207.968353 59.931961,207.274551 
	C57.446121,204.826096 55.550266,201.152466 50.197353,203.002991 
	C49.118565,202.966110 48.039780,202.929230 46.514629,202.399384 
	C41.349300,202.909927 40.189198,204.064011 40.957741,208.782639 
	C40.943077,209.864197 40.928417,210.945770 40.406006,212.491089 
	C40.876202,214.094025 40.922993,216.047287 41.901344,217.229797 
	C44.211739,220.022308 46.693760,222.818390 49.595093,224.946884 
	C56.141136,229.749237 61.573109,236.418945 70.618050,237.910156 
	C70.618050,237.910156 70.989746,238.035278 71.090683,238.711823 
	C72.432930,239.430115 73.775177,240.148392 75.124908,240.950455 
M88.001640,212.718628 
	C88.681725,213.063187 89.361809,213.407745 90.786018,213.940186 
	C94.555260,215.115967 98.324509,216.291748 102.093750,217.467545 
	C102.342682,217.001892 102.591606,216.536240 102.840530,216.070587 
	C97.858063,209.479675 93.081612,202.718079 87.815292,196.362366 
	C84.692421,192.593491 84.282364,185.230804 78.333931,185.509521 
	C73.536926,185.734268 68.895462,189.300293 64.188538,191.391937 
	C63.732658,191.594513 63.288921,191.831985 62.861397,192.089523 
	C60.543747,193.485657 60.425659,195.253601 62.417446,196.891830 
	C70.111732,203.220367 77.833458,209.539246 88.001640,212.718628 
M165.080399,33.563484 
	C165.698303,34.050285 166.316223,34.537086 167.283142,35.598858 
	C168.861206,38.054440 170.439270,40.510021 171.997269,43.732990 
	C173.322250,45.493820 174.647232,47.254646 176.203415,49.752098 
	C178.697388,50.089081 181.191360,50.426064 184.462631,50.857376 
	C186.641739,49.567432 188.820847,48.277489 191.580566,46.688908 
	C192.611801,46.377068 193.643051,46.065228 195.378098,45.842289 
	C195.918579,45.220612 196.459045,44.598934 197.534912,43.487202 
	C199.262100,40.323593 197.295227,38.538891 195.022110,36.141579 
	C193.301590,34.790909 191.581055,33.440243 189.371292,31.852798 
	C188.920288,31.550863 188.469299,31.248928 187.909332,30.275208 
	C185.531281,28.902626 183.153244,27.530046 180.378876,26.124092 
	C180.378876,26.124092 179.993561,26.025599 179.891434,25.318325 
	C176.156830,23.623642 172.422211,21.928961 167.958817,20.171263 
	C166.993561,20.035500 166.028320,19.899736 164.905502,19.146740 
	C164.191223,18.819948 163.476929,18.493155 161.999374,18.123186 
	C160.016144,17.699385 158.032913,17.275581 155.995132,16.391609 
	C155.838852,16.149660 155.682587,15.907710 155.526306,15.665761 
	C155.331131,16.040104 155.135956,16.414448 154.436676,17.195150 
	C154.261978,17.805079 154.087280,18.415007 153.452240,19.418514 
	C155.314331,21.274113 157.176422,23.129709 159.405457,25.459557 
	C159.981232,26.239449 160.557007,27.019341 161.094849,28.512951 
	C162.043228,29.352749 162.991592,30.192545 164.430969,31.334688 
	C164.638870,31.859098 164.846771,32.383507 165.080399,33.563484 
M196.918671,122.031487 
	C193.169952,121.993980 193.442429,124.983017 193.121567,127.314255 
	C192.715195,130.266800 193.037628,133.367447 192.318115,136.220749 
	C189.365738,147.928757 186.170425,159.576218 182.981339,171.223190 
	C182.354385,173.512939 181.980072,175.042282 184.950592,176.237823 
	C191.111633,178.717484 197.118408,181.621094 203.032822,184.654190 
	C205.623825,185.982925 207.290863,185.623550 209.021439,183.465103 
	C222.163437,167.073761 229.657303,148.386124 231.994370,127.551308 
	C232.447601,123.510689 231.134216,121.799934 226.817551,121.909592 
	C217.163269,122.154831 207.499023,122.007423 196.918671,122.031487 
M93.500458,122.931396 
	C88.671677,122.937088 83.820572,123.232834 79.020683,122.863251 
	C74.614418,122.523972 73.526917,124.340179 73.931007,128.323105 
	C75.261650,141.438614 77.986221,154.113159 83.320839,166.309525 
	C85.392090,171.044998 87.741516,171.432907 92.069374,170.598099 
	C101.170563,168.842590 110.333588,167.311035 119.534142,166.216217 
	C123.089745,165.793121 124.015068,164.465378 123.984093,161.226837 
	C123.877373,150.071625 123.851067,138.913498 123.998474,127.759186 
	C124.047493,124.049736 122.614380,122.764290 118.976120,122.845993 
	C110.820938,123.029129 102.659248,122.922478 93.500458,122.931396 
M62.569607,125.152313 
	C60.909733,124.394417 59.263008,123.017220 57.587795,122.981651 
	C48.426830,122.787117 39.256958,123.036362 30.094336,122.882950 
	C26.811411,122.827988 25.775894,123.922684 25.834936,127.198235 
	C26.046175,138.916809 29.168385,149.984756 34.344646,160.244843 
	C38.496449,168.474304 44.044525,176.020630 49.284000,183.656693 
	C50.053555,184.778259 52.907288,185.583405 54.181633,185.054092 
	C60.006310,182.634842 65.550926,179.550964 71.320496,176.985489 
	C74.422806,175.606033 74.896378,174.148987 73.660439,170.877014 
	C68.188522,156.390732 63.500114,141.666641 62.569607,125.152313 
M192.958389,99.619278 
	C193.286530,102.582222 193.345901,105.613022 194.068863,108.476273 
	C194.378448,109.702332 196.050171,111.455643 197.135696,111.479477 
	C207.695938,111.711388 218.263779,111.691536 228.827927,111.588654 
	C231.502487,111.562607 233.153091,110.184601 232.797562,107.108597 
	C230.760529,89.484825 224.958298,73.238487 215.017807,58.523235 
	C209.042206,49.677361 208.999512,49.733097 199.488739,54.377892 
	C194.041519,57.038170 188.556015,59.620007 183.980804,61.809727 
	C187.076492,74.616882 189.991318,86.675797 192.958389,99.619278 
M138.497910,166.099380 
	C147.964233,167.713821 157.439117,169.280380 166.892242,170.968704 
	C170.192825,171.558197 172.066177,170.540359 173.407959,167.304306 
	C178.677017,154.596573 181.191452,141.263901 182.922165,127.728706 
	C183.343185,124.436089 182.121124,122.841766 178.489853,122.879723 
	C165.161942,123.019020 151.831345,123.001129 138.502747,122.905479 
	C135.284027,122.882385 134.026428,124.106407 134.051910,127.317123 
	C134.143219,138.812988 133.961334,150.313049 134.240967,161.802811 
	C134.276245,163.252060 136.441650,164.649460 138.497910,166.099380 
M32.652531,111.963776 
	C40.969753,111.969322 49.287373,111.930542 57.603970,112.005547 
	C60.345264,112.030273 61.524834,111.174561 62.187214,108.179085 
	C65.254021,94.310127 68.539536,80.480843 72.195236,66.756821 
	C73.132774,63.237186 72.690193,61.604977 69.395714,60.209358 
	C64.198853,58.007851 58.984570,55.743362 54.099480,52.943939 
	C50.395016,50.821068 48.359493,51.534584 45.928814,54.845997 
	C35.119648,69.571732 27.924351,85.678452 25.714973,103.949982 
	C24.753513,111.901260 24.490572,111.869469 32.652531,111.963776 
M74.328026,111.034645 
	C74.577812,111.249771 74.826180,111.651436 75.077576,111.653336 
	C90.045898,111.766495 105.015182,111.919731 119.981461,111.772354 
	C121.023720,111.762085 122.911400,109.515984 122.938370,108.277626 
	C123.177505,97.297981 123.161942,86.309830 122.976013,75.328331 
	C122.956680,74.186882 121.491959,72.258400 120.450119,72.070770 
	C109.546204,70.106964 98.604507,68.333527 87.634628,66.780373 
	C86.293213,66.590462 83.832504,67.640221 83.398483,68.721039 
	C78.059807,82.015480 73.813324,95.603050 74.328026,111.034645 
M134.101654,109.026451 
	C135.709518,110.001343 137.303055,111.793533 138.927505,111.822029 
	C152.088333,112.052856 165.255661,111.877419 178.419312,112.003769 
	C181.948837,112.037643 183.626740,110.589462 182.884323,107.251442 
	C180.298737,95.626076 177.858643,83.947906 174.648865,72.489922 
	C172.878677,66.170891 171.195251,66.151314 164.669388,67.521904 
	C156.248077,69.290596 147.736115,70.768013 139.191681,71.746262 
	C135.394089,72.181038 133.942719,73.211716 134.016434,77.115547 
	C134.211472,87.443718 134.076126,97.778114 134.101654,109.026451 
M178.068146,245.492126 
	C183.983139,238.133926 184.891556,230.071854 180.744705,221.721680 
	C176.994034,214.169266 168.140747,209.660339 159.403687,211.137787 
	C151.330353,212.502991 144.215912,217.376297 141.660416,226.585663 
	C139.449585,234.552948 143.973831,245.902725 151.136429,250.059814 
	C159.730789,255.047882 169.955917,253.480347 178.068146,245.492126 
M134.051285,33.502411 
	C134.056412,40.981022 134.181564,48.462349 134.012375,55.937016 
	C133.935959,59.312870 135.213348,61.273148 138.550125,60.821930 
	C146.893372,59.693710 155.219940,58.380199 163.475052,56.746265 
	C164.426926,56.557865 165.902939,53.319904 165.418823,52.430313 
	C158.390961,39.516521 149.086563,28.325344 138.490997,18.193182 
	C137.768707,17.502485 135.922287,16.864630 135.487808,17.237700 
	C134.672501,17.937757 134.179581,19.382494 134.132584,20.541058 
	C133.971039,24.523352 134.060242,28.515820 134.051285,33.502411 
M104.175697,33.717751 
	C99.305847,40.730534 94.435989,47.743317 89.419640,54.967060 
	C91.114426,55.893105 91.794533,56.517834 92.556427,56.642414 
	C101.545761,58.112286 110.542015,59.542526 119.548347,60.904533 
	C123.090111,61.440147 123.109879,59.017704 123.105782,56.497700 
	C123.086006,44.342175 123.142700,32.186523 123.119736,20.031013 
	C123.117439,18.816158 122.760498,17.601974 122.475433,15.802039 
	C116.158554,21.916288 110.367088,27.521980 104.175697,33.717751 
M17.110327,320.393066 
	C15.749660,322.065826 14.388994,323.738586 13.028331,325.411346 
	C14.874260,326.837402 16.570009,329.157135 18.598310,329.497986 
	C22.463530,330.147552 26.565382,330.057190 30.486286,329.585968 
	C43.981548,327.964020 56.618675,323.358154 68.762474,317.472015 
	C73.190231,315.325958 77.162155,312.239471 82.095322,309.103088 
	C78.987335,307.082672 77.019691,306.111115 75.430099,304.710480 
	C71.259315,301.035492 67.608299,302.234894 63.385910,304.919220 
	C59.367798,307.473694 54.929352,309.642212 50.386452,311.040985 
	C39.628262,314.353424 28.698435,317.108429 17.110327,320.393066 
M94.006989,186.463058 
	C102.117722,198.026382 110.537201,209.305695 122.271210,218.188034 
	C122.691116,216.961655 122.967590,216.517303 122.979630,216.065918 
	C123.284897,204.620926 123.640228,193.176254 123.795181,181.728943 
	C123.838921,178.497894 122.393501,176.381882 118.550064,177.010895 
	C111.046349,178.238937 103.514366,179.293930 96.009125,180.513123 
	C92.668671,181.055756 91.137619,182.623337 94.006989,186.463058 
M148.646759,203.155075 
	C156.837433,199.118378 160.202576,191.080215 164.383484,183.795532 
	C164.699265,183.245316 162.894943,180.473373 161.805344,180.282867 
	C154.136276,178.941864 146.397171,177.999878 138.678284,176.946182 
	C135.816315,176.555511 134.873123,177.942245 134.904327,180.688187 
	C134.995193,188.686966 134.923828,196.687561 134.917328,204.687454 
	C134.915222,207.262543 134.916992,209.837646 134.916992,213.012878 
	C139.859390,209.416733 143.928574,206.455948 148.646759,203.155075 
M60.759987,44.857639 
	C65.300682,46.900513 69.881248,48.860321 74.368675,51.014179 
	C77.598190,52.564274 79.313728,51.487812 81.247284,48.607502 
	C86.409325,40.917877 91.997810,33.513988 97.438255,26.012094 
	C99.369514,23.349056 101.362663,20.730898 103.327560,18.092253 
	C102.970490,17.625803 102.613411,17.159353 102.256340,16.692904 
	C99.675041,17.464167 97.050224,18.114708 94.519798,19.027079 
	C81.909920,23.573713 70.360672,29.940807 60.409283,39.042324 
	C58.429745,40.852802 57.106186,42.520340 60.759987,44.857639 
M175.717758,186.024826 
	C173.172241,190.452301 170.626740,194.879776 167.813309,199.773254 
	C172.485977,201.924408 176.766235,204.013153 181.162857,205.818481 
	C182.033981,206.176178 183.571945,205.760178 184.425995,205.162827 
	C188.223679,202.506516 192.003250,199.791885 195.502258,196.766296 
	C196.272491,196.100311 196.309280,192.991089 195.944305,192.844177 
	C189.458313,190.233429 182.857941,187.906860 175.717758,186.024826 
z"/>
<path fill="#EEF6FC" opacity="1.000000" stroke="none" 
	d="
M158.987366,270.638336 
	C154.791534,269.630737 150.606033,268.230927 146.147003,266.739624 
	C147.489166,263.220490 149.090424,261.600128 152.895126,262.737396 
	C155.846069,263.619446 159.061401,263.616943 162.588776,264.070923 
	C161.678116,266.171509 160.337906,268.208801 158.987366,270.638336 
z"/>
<path fill="#EEF6FC" opacity="1.000000" stroke="none" 
	d="
M172.457916,328.967834 
	C171.801270,319.943024 171.497437,310.866791 171.290192,301.376465 
	C172.252396,302.407013 173.771088,303.807404 173.872681,305.303986 
	C174.360718,312.492126 174.516678,319.705536 174.621521,326.912445 
	C174.631104,327.571503 173.442780,328.247986 172.457916,328.967834 
z"/>
<path fill="#EEF6FC" opacity="1.000000" stroke="none" 
	d="
M197.229843,239.928925 
	C201.979645,236.296432 207.144516,232.692947 212.660751,229.072083 
	C212.820496,230.494064 213.156021,232.636475 212.342499,233.246460 
	C209.421143,235.436981 206.196243,237.281342 202.911407,238.902649 
	C201.360184,239.668304 199.412796,239.631271 197.229843,239.928925 
z"/>
<path fill="#E9F4FC" opacity="1.000000" stroke="none" 
	d="
M229.296570,173.938522 
	C231.710068,167.494064 234.534668,161.029114 237.216705,154.505554 
	C238.148788,152.238480 238.727997,149.826324 239.747711,147.243988 
	C240.336151,148.063889 241.212189,149.378159 240.867020,150.136841 
	C237.240768,158.107269 233.419235,165.988861 229.296570,173.938522 
z"/>
<path fill="#E9F4FC" opacity="1.000000" stroke="none" 
	d="
M234.865952,70.902634 
	C230.903900,64.768387 227.002228,58.232590 223.058350,51.343391 
	C223.797455,51.154137 225.052734,51.069836 225.288620,51.519875 
	C228.582764,57.804188 231.737564,64.161530 234.865952,70.902634 
z"/>
<path fill="#EEF6FC" opacity="1.000000" stroke="none" 
	d="
M226.127579,216.862259 
	C226.827667,211.174911 229.865875,205.539230 226.236572,199.333984 
	C227.382538,199.466583 228.957138,199.680862 229.536713,200.554916 
	C231.419418,203.394241 229.285904,214.009705 226.127579,216.862259 
z"/>
<path fill="#EEF6FC" opacity="1.000000" stroke="none" 
	d="
M183.206818,256.931641 
	C185.229141,253.930878 187.639114,250.960114 190.361816,247.908783 
	C194.155502,251.477371 190.244766,253.055145 188.423157,254.855927 
	C187.258179,256.007568 185.233643,256.289703 183.206818,256.931641 
z"/>
<path fill="#E9F4FC" opacity="1.000000" stroke="none" 
	d="
M240.346344,87.732498 
	C238.400543,83.235992 236.712311,78.500336 235.034393,73.377151 
	C236.338821,74.514099 238.228653,75.846199 238.796707,77.605164 
	C239.817520,80.766106 240.044968,84.183258 240.346344,87.732498 
z"/>
<path fill="#EEF6FC" opacity="1.000000" stroke="none" 
	d="
M166.931808,278.977173 
	C164.260025,276.750244 161.757858,274.188385 159.114868,271.324707 
	C164.555954,272.104340 167.509201,274.873016 166.931808,278.977173 
z"/>
<path fill="#E9F4FC" opacity="1.000000" stroke="none" 
	d="
M223.009979,50.585369 
	C220.695389,48.221542 218.380600,45.457554 216.022675,42.351990 
	C219.458206,43.759048 223.547913,44.982182 223.009979,50.585369 
z"/>
<path fill="#EEF6FC" opacity="1.000000" stroke="none" 
	d="
M167.945023,339.882904 
	C168.770233,338.061462 169.595444,336.240051 170.669617,334.203979 
	C173.475784,336.200989 172.822800,338.532349 168.345947,341.596741 
	C167.976395,340.815796 167.960709,340.349365 167.945023,339.882904 
z"/>
<path fill="#EEF6FC" opacity="1.000000" stroke="none" 
	d="
M165.294449,264.341675 
	C168.109787,263.104065 171.192902,262.137299 174.652344,261.196716 
	C172.934021,265.315521 169.438156,265.494751 165.294449,264.341675 
z"/>
<path fill="#E9F4FC" opacity="1.000000" stroke="none" 
	d="
M164.953156,7.671908 
	C162.822388,7.538198 160.658752,7.035200 158.247162,6.267959 
	C160.847351,3.553311 163.433472,2.499135 164.953156,7.671908 
z"/>
<path fill="#E9F4FC" opacity="1.000000" stroke="none" 
	d="
M176.967438,12.610302 
	C174.145676,11.840546 171.281708,10.714558 168.200806,9.319663 
	C171.648651,8.208353 174.774994,8.868950 176.967438,12.610302 
z"/>
<path fill="#EEF6FC" opacity="1.000000" stroke="none" 
	d="
M170.079498,287.887207 
	C168.914948,286.276062 168.046188,284.472626 167.200378,282.318665 
	C168.273987,283.877075 169.324631,285.785980 170.079498,287.887207 
z"/>
<path fill="#E9F4FC" opacity="1.000000" stroke="none" 
	d="
M243.668396,122.924927 
	C243.344650,120.886925 243.354614,118.728912 243.603363,116.262421 
	C243.895462,118.237595 243.948792,120.521255 243.668396,122.924927 
z"/>
<path fill="#E9F4FC" opacity="1.000000" stroke="none" 
	d="
M242.271851,96.768555 
	C241.407944,94.898956 240.817001,92.796646 240.293015,90.320801 
	C241.088242,92.143463 241.816513,94.339645 242.271851,96.768555 
z"/>
<path fill="#E9F4FC" opacity="1.000000" stroke="none" 
	d="
M240.636017,144.952972 
	C240.706650,142.866730 241.095108,140.682846 241.756149,138.254257 
	C241.670456,140.291489 241.312149,142.573410 240.636017,144.952972 
z"/>
<path fill="#E9F4FC" opacity="1.000000" stroke="none" 
	d="
M207.911591,32.827263 
	C206.671539,32.349541 205.469025,31.486374 204.126648,30.329721 
	C207.037079,27.989386 207.677795,29.911381 207.911591,32.827263 
z"/>
<path fill="#E9F4FC" opacity="1.000000" stroke="none" 
	d="
M184.955170,16.624662 
	C182.993973,15.918416 180.980026,14.869498 178.822723,13.511107 
	C180.753723,14.228419 182.828079,15.255205 184.955170,16.624662 
z"/>
<path fill="#EEF6FC" opacity="1.000000" stroke="none" 
	d="
M179.157166,259.907227 
	C179.649918,258.967621 180.498123,258.039276 181.682159,257.107544 
	C181.182861,258.042267 180.347733,258.980347 179.157166,259.907227 
z"/>
<path fill="#E5F2FC" opacity="1.000000" stroke="none" 
	d="
M167.618790,339.957855 
	C167.960709,340.349365 167.976395,340.815796 167.990997,341.631104 
	C167.186386,342.304260 166.382858,342.628571 165.250031,342.952820 
	C165.711349,341.979492 166.501953,341.006134 167.618790,339.957855 
z"/>
<path fill="#E9F4FC" opacity="1.000000" stroke="none" 
	d="
M191.963989,20.641415 
	C190.964478,20.277756 189.928680,19.558851 188.774765,18.527340 
	C189.747009,18.905212 190.837357,19.595690 191.963989,20.641415 
z"/>
<path fill="#EEF6FC" opacity="1.000000" stroke="none" 
	d="
M193.176102,242.912109 
	C193.660339,241.967209 194.499329,241.026932 195.675995,240.077789 
	C195.186066,241.018188 194.358459,241.967468 193.176102,242.912109 
z"/>
<path fill="#E9F4FC" opacity="1.000000" stroke="none" 
	d="
M242.678772,133.973190 
	C242.447052,133.186707 242.493393,132.316147 242.800873,131.231812 
	C243.026932,131.975052 242.991867,132.932083 242.678772,133.973190 
z"/>
<path fill="#E9F4FC" opacity="1.000000" stroke="none" 
	d="
M243.270691,103.802376 
	C242.738983,103.197769 242.451096,102.403572 242.245117,101.277664 
	C242.722839,101.834892 243.118668,102.723846 243.270691,103.802376 
z"/>
<path fill="#E9F4FC" opacity="1.000000" stroke="none" 
	d="
M194.942810,22.696407 
	C194.314285,22.605011 193.647583,22.171667 192.870514,21.440620 
	C193.474976,21.546764 194.189819,21.950613 194.942810,22.696407 
z"/>
<path fill="#E5F2FC" opacity="1.000000" stroke="none" 
	d="
M161.177414,345.257568 
	C161.475861,344.701752 161.942978,344.370758 162.712982,344.045654 
	C162.459274,344.528534 161.902679,345.005493 161.177414,345.257568 
z"/>
<path fill="#EEF6FC" opacity="1.000000" stroke="none" 
	d="
M171.172058,293.868347 
	C170.674927,293.527679 170.409500,293.034149 170.210938,292.251526 
	C170.653107,292.546783 171.028458,293.131134 171.172058,293.868347 
z"/>
<path fill="#E9F4FC" opacity="1.000000" stroke="none" 
	d="
M198.950378,25.674629 
	C198.326859,25.583385 197.656982,25.156363 196.888275,24.426022 
	C197.494293,24.528086 198.199158,24.933468 198.950378,25.674629 
z"/>
<path fill="#EEF6FC" opacity="1.000000" stroke="none" 
	d="
M223.325867,219.953796 
	C223.422836,219.329895 223.854843,218.662262 224.593964,217.902435 
	C224.487686,218.510193 224.074295,219.210129 223.325867,219.953796 
z"/>
<path fill="#E5F2FC" opacity="1.000000" stroke="none" 
	d="
M51.125542,336.863342 
	C53.933441,335.332703 57.096333,333.730988 60.378113,332.428986 
	C63.604900,331.148804 66.952332,330.172668 70.623398,329.031555 
	C70.415611,329.684174 69.960518,330.736450 69.226387,330.994324 
	C63.358292,333.055634 57.437347,334.966522 51.125542,336.863342 
z"/>
<path fill="#E9F4FC" opacity="1.000000" stroke="none" 
	d="
M80.915009,12.032678 
	C77.070824,14.780560 72.889633,17.355715 68.356781,19.969429 
	C69.826782,16.009569 77.282562,11.177743 80.915009,12.032678 
z"/>
<path fill="#E5F2FC" opacity="1.000000" stroke="none" 
	d="
M20.079437,340.677551 
	C23.673529,340.255005 27.404707,340.183563 31.595333,340.201935 
	C28.293249,343.502472 24.249710,342.182404 20.079437,340.677551 
z"/>
<path fill="#E5F2FC" opacity="1.000000" stroke="none" 
	d="
M136.719574,331.231140 
	C138.624191,334.096802 140.283447,337.184998 141.990387,340.626404 
	C137.310059,339.482574 136.977600,335.418182 136.719574,331.231140 
z"/>
<path fill="#E9F4FC" opacity="1.000000" stroke="none" 
	d="
M102.782578,4.771172 
	C99.938171,6.041593 96.858650,7.027130 93.389931,8.008888 
	C94.678383,2.750144 99.370193,5.672729 102.782578,4.771172 
z"/>
<path fill="#E5F2FC" opacity="1.000000" stroke="none" 
	d="
M9.025829,337.442505 
	C11.496336,337.895813 14.018459,338.705994 16.760361,339.792542 
	C14.345909,339.312408 11.711678,338.555878 9.025829,337.442505 
z"/>
<path fill="#E5F2FC" opacity="1.000000" stroke="none" 
	d="
M134.624695,321.286560 
	C135.530487,323.451599 136.183807,325.866974 136.753326,328.672668 
	C135.903778,326.554291 135.138016,324.045563 134.624695,321.286560 
z"/>
<path fill="#E5F2FC" opacity="1.000000" stroke="none" 
	d="
M100.126770,310.844177 
	C101.858269,310.210358 104.035103,309.650360 106.631035,309.175354 
	C104.890785,309.812897 102.731445,310.365479 100.126770,310.844177 
z"/>
<path fill="#E5F2FC" opacity="1.000000" stroke="none" 
	d="
M111.286835,309.344482 
	C113.082893,308.735016 115.143486,308.393585 117.622482,308.115051 
	C115.877716,308.656128 113.714546,309.134369 111.286835,309.344482 
z"/>
<path fill="#E5F2FC" opacity="1.000000" stroke="none" 
	d="
M86.148064,320.877319 
	C87.281425,319.582825 88.788063,318.313293 90.637642,317.004486 
	C89.494171,318.277588 88.007751,319.589935 86.148064,320.877319 
z"/>
<path fill="#E5F2FC" opacity="1.000000" stroke="none" 
	d="
M121.240982,308.330872 
	C122.125534,307.758209 123.228859,307.433868 124.695557,307.200256 
	C123.859207,307.720367 122.659477,308.149750 121.240982,308.330872 
z"/>
<path fill="#E9F4FC" opacity="1.000000" stroke="none" 
	d="
M64.930717,21.143055 
	C64.416443,22.088863 63.536339,23.000132 62.322021,23.940113 
	C62.846836,23.015390 63.705864,22.061953 64.930717,21.143055 
z"/>
<path fill="#E5F2FC" opacity="1.000000" stroke="none" 
	d="
M95.207176,313.914154 
	C95.677513,312.958710 96.502869,312.007080 97.662659,311.025024 
	C97.185463,311.969055 96.373833,312.943512 95.207176,313.914154 
z"/>
<path fill="#E9F4FC" opacity="1.000000" stroke="none" 
	d="
M107.827225,3.792652 
	C107.226479,4.358137 106.435493,4.662968 105.309799,4.923272 
	C105.862381,4.429830 106.749687,3.980914 107.827225,3.792652 
z"/>
<path fill="#E5F2FC" opacity="1.000000" stroke="none" 
	d="
M40.208435,339.300262 
	C40.807453,338.751495 41.598721,338.443787 42.726494,338.216797 
	C42.175560,338.712128 41.288120,339.126740 40.208435,339.300262 
z"/>
<path fill="#E5F2FC" opacity="1.000000" stroke="none" 
	d="
M133.665070,314.219238 
	C134.205688,314.822784 134.514709,315.617615 134.704956,316.743103 
	C134.201950,316.186066 133.817719,315.298279 133.665070,314.219238 
z"/>
<path fill="#E5F2FC" opacity="1.000000" stroke="none" 
	d="
M143.058563,342.295044 
	C143.685013,342.390594 144.345230,342.827576 145.111420,343.562012 
	C144.509064,343.451843 143.800705,343.044128 143.058563,342.295044 
z"/>
<path fill="#E5F2FC" opacity="1.000000" stroke="none" 
	d="
M35.161304,340.235962 
	C35.497963,339.734924 35.991116,339.452728 36.777191,339.254547 
	C36.486004,339.710632 35.901901,340.082703 35.161304,340.235962 
z"/>
<path fill="#E5F2FC" opacity="1.000000" stroke="none" 
	d="
M74.150330,327.896362 
	C74.352005,327.313049 74.881660,326.739838 75.728729,326.172913 
	C75.523529,326.754944 75.000923,327.330688 74.150330,327.896362 
z"/>
<path fill="#E5F2FC" opacity="1.000000" stroke="none" 
	d="
M78.144386,325.887421 
	C78.328278,325.277527 78.853233,324.679810 79.696297,324.056274 
	C79.504753,324.653503 78.995102,325.276550 78.144386,325.887421 
z"/>
<path fill="#E9F4FC" opacity="1.000000" stroke="none" 
	d="
M42.706501,41.054794 
	C42.595989,41.676575 42.148411,42.331863 41.392563,43.070778 
	C41.512669,42.465706 41.941051,41.777008 42.706501,41.054794 
z"/>
<path fill="#FAFDFD" opacity="1.000000" stroke="none" 
	d="
M46.960991,202.892349 
	C48.039780,202.929230 49.118565,202.966110 50.822716,203.249084 
	C54.302032,204.986237 57.155979,206.477295 60.009926,207.968353 
	C60.009926,207.968353 60.396572,208.079086 60.697361,208.424408 
	C65.319641,211.546265 69.641136,214.322784 73.962624,217.099304 
	C73.962624,217.099304 74.323433,217.196289 74.656853,217.505768 
	C76.357239,218.708817 77.636024,219.795471 79.104729,220.466278 
	C94.950882,227.703842 111.531235,231.792252 129.016953,231.898743 
	C129.264954,232.121170 129.512955,232.343582 129.875046,233.206757 
	C130.427780,238.753067 130.418991,243.818924 134.811127,247.308243 
	C134.862289,247.681320 134.913452,248.054398 135.050537,249.038284 
	C136.375839,250.847229 137.615219,252.045364 138.854614,253.243515 
	C138.892670,254.221924 138.930740,255.200333 138.610474,256.607727 
	C133.411560,259.968964 128.570953,262.901276 123.730354,265.833557 
	C123.730354,265.833557 123.350700,265.836517 122.773575,265.891907 
	C119.755020,266.846710 117.046318,267.356384 114.966309,268.782776 
	C113.583481,269.731079 112.078926,272.295776 112.466347,273.584564 
	C112.968086,275.253632 115.161140,277.265259 116.873299,277.529907 
	C119.808159,277.983643 122.934746,277.197266 125.980827,276.931580 
	C130.002228,276.923828 134.023636,276.916077 138.846924,276.927338 
	C140.111115,276.904968 140.573410,276.863617 141.035706,276.822235 
	C141.481369,276.853241 141.927017,276.884247 142.948730,277.182678 
	C147.658890,279.010590 151.793015,280.571075 155.927124,282.131592 
	C155.927124,282.131592 155.982101,282.561371 156.058563,283.154541 
	C157.120483,288.037384 158.262573,292.298615 159.049362,296.624451 
	C159.912628,301.370850 160.448334,306.176849 161.126770,310.956879 
	C161.094025,314.672821 161.061279,318.388733 160.775787,322.830170 
	C159.017960,334.086761 157.116348,335.636475 149.043777,332.910583 
	C148.726089,332.135498 148.408401,331.360382 147.960938,329.984131 
	C147.227112,328.252869 146.623093,327.122833 146.019058,325.992767 
	C145.948273,324.938080 145.877502,323.883423 145.771851,322.039307 
	C144.840042,314.019562 144.304214,306.714050 142.823074,299.605469 
	C142.386581,297.510529 139.141083,294.319702 137.414566,294.461060 
	C129.240097,295.130249 121.145828,296.779205 113.022987,298.079041 
	C111.635468,298.100525 110.247955,298.122040 107.984421,298.122620 
	C97.615501,297.586090 87.675598,300.168823 78.991776,294.045197 
	C78.557030,293.739288 78.122292,293.433380 77.361244,292.698761 
	C76.424385,291.736450 75.813820,291.202850 75.203262,290.669250 
	C74.768166,289.353119 74.333069,288.036957 73.889404,285.935944 
	C73.885239,282.759979 73.889633,280.368927 73.894028,277.977844 
	C73.962128,277.584412 74.030235,277.190979 74.390411,276.299866 
	C78.926628,270.562927 82.959579,265.133514 87.464401,260.128876 
	C94.239601,252.601852 93.493523,248.876404 83.971664,245.123398 
	C83.605843,245.034607 83.240021,244.945801 82.447868,244.514969 
	C79.712013,243.073822 77.402489,241.974701 75.092972,240.875580 
	C75.092972,240.875580 75.124908,240.950455 75.039337,240.589645 
	C73.632431,239.497650 72.311089,238.766464 70.989746,238.035278 
	C70.989746,238.035278 70.618050,237.910156 70.297745,237.571991 
	C69.076057,236.551315 68.215660,235.804962 67.266991,235.196167 
	C57.309048,228.805527 47.387375,222.379532 40.913757,212.027328 
	C40.928417,210.945770 40.943077,209.864197 41.216461,208.194214 
	C43.303783,206.034653 45.132385,204.463501 46.960991,202.892349 
z"/>
<path fill="#FBFDFE" opacity="1.000000" stroke="none" 
	d="
M197.378754,122.025711 
	C207.499023,122.007423 217.163269,122.154831 226.817551,121.909592 
	C231.134216,121.799934 232.447601,123.510689 231.994370,127.551308 
	C229.657303,148.386124 222.163437,167.073761 209.021439,183.465103 
	C207.290863,185.623550 205.623825,185.982925 203.032822,184.654190 
	C197.118408,181.621094 191.111633,178.717484 184.950592,176.237823 
	C181.980072,175.042282 182.354385,173.512939 182.981339,171.223190 
	C186.170425,159.576218 189.365738,147.928757 192.318115,136.220749 
	C193.037628,133.367447 192.715195,130.266800 193.121567,127.314255 
	C193.442429,124.983017 193.169952,121.993980 197.378754,122.025711 
z"/>
<path fill="#FBFDFE" opacity="1.000000" stroke="none" 
	d="
M94.000336,122.932617 
	C102.659248,122.922478 110.820938,123.029129 118.976120,122.845993 
	C122.614380,122.764290 124.047493,124.049736 123.998474,127.759186 
	C123.851067,138.913498 123.877373,150.071625 123.984093,161.226837 
	C124.015068,164.465378 123.089745,165.793121 119.534142,166.216217 
	C110.333588,167.311035 101.170563,168.842590 92.069374,170.598099 
	C87.741516,171.432907 85.392090,171.044998 83.320839,166.309525 
	C77.986221,154.113159 75.261650,141.438614 73.931007,128.323105 
	C73.526917,124.340179 74.614418,122.523972 79.020683,122.863251 
	C83.820572,123.232834 88.671677,122.937088 94.000336,122.932617 
z"/>
<path fill="#FBFDFE" opacity="1.000000" stroke="none" 
	d="
M62.706234,125.575729 
	C63.500114,141.666641 68.188522,156.390732 73.660439,170.877014 
	C74.896378,174.148987 74.422806,175.606033 71.320496,176.985489 
	C65.550926,179.550964 60.006310,182.634842 54.181633,185.054092 
	C52.907288,185.583405 50.053555,184.778259 49.284000,183.656693 
	C44.044525,176.020630 38.496449,168.474304 34.344646,160.244843 
	C29.168385,149.984756 26.046175,138.916809 25.834936,127.198235 
	C25.775894,123.922684 26.811411,122.827988 30.094336,122.882950 
	C39.256958,123.036362 48.426830,122.787117 57.587795,122.981651 
	C59.263008,123.017220 60.909733,124.394417 62.706234,125.575729 
z"/>
<path fill="#FAFDFD" opacity="1.000000" stroke="none" 
	d="
M192.932281,99.176994 
	C189.991318,86.675797 187.076492,74.616882 183.980804,61.809727 
	C188.556015,59.620007 194.041519,57.038170 199.488739,54.377892 
	C208.999512,49.733097 209.042206,49.677361 215.017807,58.523235 
	C224.958298,73.238487 230.760529,89.484825 232.797562,107.108597 
	C233.153091,110.184601 231.502487,111.562607 228.827927,111.588654 
	C218.263779,111.691536 207.695938,111.711388 197.135696,111.479477 
	C196.050171,111.455643 194.378448,109.702332 194.068863,108.476273 
	C193.345901,105.613022 193.286530,102.582222 192.932281,99.176994 
z"/>
<path fill="#FBFDFE" opacity="1.000000" stroke="none" 
	d="
M138.059021,166.085144 
	C136.441650,164.649460 134.276245,163.252060 134.240967,161.802811 
	C133.961334,150.313049 134.143219,138.812988 134.051910,127.317123 
	C134.026428,124.106407 135.284027,122.882385 138.502747,122.905479 
	C151.831345,123.001129 165.161942,123.019020 178.489853,122.879723 
	C182.121124,122.841766 183.343185,124.436089 182.922165,127.728706 
	C181.191452,141.263901 178.677017,154.596573 173.407959,167.304306 
	C172.066177,170.540359 170.192825,171.558197 166.892242,170.968704 
	C157.439117,169.280380 147.964233,167.713821 138.059021,166.085144 
z"/>
<path fill="#FAFDFD" opacity="1.000000" stroke="none" 
	d="
M32.177696,111.961617 
	C24.490572,111.869469 24.753513,111.901260 25.714973,103.949982 
	C27.924351,85.678452 35.119648,69.571732 45.928814,54.845997 
	C48.359493,51.534584 50.395016,50.821068 54.099480,52.943939 
	C58.984570,55.743362 64.198853,58.007851 69.395714,60.209358 
	C72.690193,61.604977 73.132774,63.237186 72.195236,66.756821 
	C68.539536,80.480843 65.254021,94.310127 62.187214,108.179085 
	C61.524834,111.174561 60.345264,112.030273 57.603970,112.005547 
	C49.287373,111.930542 40.969753,111.969322 32.177696,111.961617 
z"/>
<path fill="#FBFDFE" opacity="1.000000" stroke="none" 
	d="
M74.182907,110.602982 
	C73.813324,95.603050 78.059807,82.015480 83.398483,68.721039 
	C83.832504,67.640221 86.293213,66.590462 87.634628,66.780373 
	C98.604507,68.333527 109.546204,70.106964 120.450119,72.070770 
	C121.491959,72.258400 122.956680,74.186882 122.976013,75.328331 
	C123.161942,86.309830 123.177505,97.297981 122.938370,108.277626 
	C122.911400,109.515984 121.023720,111.762085 119.981461,111.772354 
	C105.015182,111.919731 90.045898,111.766495 75.077576,111.653336 
	C74.826180,111.651436 74.577812,111.249771 74.182907,110.602982 
z"/>
<path fill="#FAFDFD" opacity="1.000000" stroke="none" 
	d="
M134.086975,108.568245 
	C134.076126,97.778114 134.211472,87.443718 134.016434,77.115547 
	C133.942719,73.211716 135.394089,72.181038 139.191681,71.746262 
	C147.736115,70.768013 156.248077,69.290596 164.669388,67.521904 
	C171.195251,66.151314 172.878677,66.170891 174.648865,72.489922 
	C177.858643,83.947906 180.298737,95.626076 182.884323,107.251442 
	C183.626740,110.589462 181.948837,112.037643 178.419312,112.003769 
	C165.255661,111.877419 152.088333,112.052856 138.927505,111.822029 
	C137.303055,111.793533 135.709518,110.001343 134.086975,108.568245 
z"/>
<path fill="#FAFDFD" opacity="1.000000" stroke="none" 
	d="
M177.812195,245.750854 
	C169.955917,253.480347 159.730789,255.047882 151.136429,250.059814 
	C143.973831,245.902725 139.449585,234.552948 141.660416,226.585663 
	C144.215912,217.376297 151.330353,212.502991 159.403687,211.137787 
	C168.140747,209.660339 176.994034,214.169266 180.744705,221.721680 
	C184.891556,230.071854 183.983139,238.133926 177.812195,245.750854 
z"/>
<path fill="#F7FBFD" opacity="1.000000" stroke="none" 
	d="
M134.052582,33.003410 
	C134.060242,28.515820 133.971039,24.523352 134.132584,20.541058 
	C134.179581,19.382494 134.672501,17.937757 135.487808,17.237700 
	C135.922287,16.864630 137.768707,17.502485 138.490997,18.193182 
	C149.086563,28.325344 158.390961,39.516521 165.418823,52.430313 
	C165.902939,53.319904 164.426926,56.557865 163.475052,56.746265 
	C155.219940,58.380199 146.893372,59.693710 138.550125,60.821930 
	C135.213348,61.273148 133.935959,59.312870 134.012375,55.937016 
	C134.181564,48.462349 134.056412,40.981022 134.052582,33.003410 
z"/>
<path fill="#F9FCFD" opacity="1.000000" stroke="none" 
	d="
M104.375656,33.422714 
	C110.367088,27.521980 116.158554,21.916288 122.475433,15.802039 
	C122.760498,17.601974 123.117439,18.816158 123.119736,20.031013 
	C123.142700,32.186523 123.086006,44.342175 123.105782,56.497700 
	C123.109879,59.017704 123.090111,61.440147 119.548347,60.904533 
	C110.542015,59.542526 101.545761,58.112286 92.556427,56.642414 
	C91.794533,56.517834 91.114426,55.893105 89.419640,54.967060 
	C94.435989,47.743317 99.305847,40.730534 104.375656,33.422714 
z"/>
<path fill="#F6FBFD" opacity="1.000000" stroke="none" 
	d="
M17.474159,320.240906 
	C28.698435,317.108429 39.628262,314.353424 50.386452,311.040985 
	C54.929352,309.642212 59.367798,307.473694 63.385910,304.919220 
	C67.608299,302.234894 71.259315,301.035492 75.430099,304.710480 
	C77.019691,306.111115 78.987335,307.082672 82.095322,309.103088 
	C77.162155,312.239471 73.190231,315.325958 68.762474,317.472015 
	C56.618675,323.358154 43.981548,327.964020 30.486286,329.585968 
	C26.565382,330.057190 22.463530,330.147552 18.598310,329.497986 
	C16.570009,329.157135 14.874260,326.837402 13.028330,325.411346 
	C14.388994,323.738586 15.749660,322.065826 17.474159,320.240906 
z"/>
<path fill="#F8FCFD" opacity="1.000000" stroke="none" 
	d="
M93.788460,186.174713 
	C91.137619,182.623337 92.668671,181.055756 96.009125,180.513123 
	C103.514366,179.293930 111.046349,178.238937 118.550064,177.010895 
	C122.393501,176.381882 123.838921,178.497894 123.795181,181.728943 
	C123.640228,193.176254 123.284897,204.620926 122.979630,216.065918 
	C122.967590,216.517303 122.691116,216.961655 122.271210,218.188034 
	C110.537201,209.305695 102.117722,198.026382 93.788460,186.174713 
z"/>
<path fill="#F8FCFD" opacity="1.000000" stroke="none" 
	d="
M148.322266,203.325119 
	C143.928574,206.455948 139.859390,209.416733 134.916992,213.012878 
	C134.916992,209.837646 134.915222,207.262543 134.917328,204.687454 
	C134.923828,196.687561 134.995193,188.686966 134.904327,180.688187 
	C134.873123,177.942245 135.816315,176.555511 138.678284,176.946182 
	C146.397171,177.999878 154.136276,178.941864 161.805344,180.282867 
	C162.894943,180.473373 164.699265,183.245316 164.383484,183.795532 
	C160.202576,191.080215 156.837433,199.118378 148.322266,203.325119 
z"/>
<path fill="#F5FAFC" opacity="1.000000" stroke="none" 
	d="
M60.447433,44.678722 
	C57.106186,42.520340 58.429745,40.852802 60.409283,39.042324 
	C70.360672,29.940807 81.909920,23.573713 94.519798,19.027079 
	C97.050224,18.114708 99.675041,17.464167 102.256340,16.692904 
	C102.613411,17.159353 102.970490,17.625803 103.327560,18.092253 
	C101.362663,20.730898 99.369514,23.349056 97.438255,26.012094 
	C91.997810,33.513988 86.409325,40.917877 81.247284,48.607502 
	C79.313728,51.487812 77.598190,52.564274 74.368675,51.014179 
	C69.881248,48.860321 65.300682,46.900513 60.447433,44.678722 
z"/>
<path fill="#F7FBFD" opacity="1.000000" stroke="none" 
	d="
M156.049683,16.851780 
	C158.032913,17.275581 160.016144,17.699385 162.494476,18.440504 
	C163.680756,19.093208 164.371902,19.428593 165.063065,19.763975 
	C166.028320,19.899736 166.993561,20.035500 168.466904,20.517441 
	C172.647842,22.584280 176.320709,24.304941 179.993561,26.025600 
	C179.993561,26.025599 180.378876,26.124092 180.695740,26.456127 
	C183.347839,28.174437 185.683075,29.560711 188.018311,30.946987 
	C188.469299,31.248928 188.920288,31.550863 189.693619,32.295113 
	C191.697021,34.109840 193.378082,35.482254 195.059158,36.854668 
	C197.295227,38.538891 199.262100,40.323593 196.949097,43.761997 
	C195.800293,44.608994 195.237289,45.181194 194.674286,45.753395 
	C193.643051,46.065228 192.611801,46.377068 190.919006,46.845501 
	C188.066742,48.255741 185.876038,49.509392 183.685333,50.763046 
	C181.191360,50.426064 178.697388,50.089081 176.073441,49.039322 
	C174.634750,46.539562 173.326050,44.752579 172.017334,42.965599 
	C170.439270,40.510021 168.861206,38.054440 167.089142,34.992462 
	C166.281631,33.893353 165.668152,33.400635 165.054657,32.907921 
	C164.846771,32.383507 164.638870,31.859098 164.164673,30.847992 
	C162.976517,29.507273 162.054642,28.653254 161.132782,27.799234 
	C160.557007,27.019341 159.981232,26.239449 159.180847,24.885536 
	C157.275024,22.549324 155.593796,20.787130 153.912567,19.024937 
	C154.087280,18.415007 154.261978,17.805079 154.963745,17.054119 
	C155.677109,16.892651 155.863388,16.872215 156.049683,16.851780 
z"/>
<path fill="#F7FBFD" opacity="1.000000" stroke="none" 
	d="
M87.782310,212.127975 
	C77.833458,209.539246 70.111732,203.220367 62.417446,196.891830 
	C60.425659,195.253601 60.543747,193.485657 62.861397,192.089523 
	C63.288921,191.831985 63.732658,191.594513 64.188538,191.391937 
	C68.895462,189.300293 73.536926,185.734268 78.333931,185.509521 
	C84.282364,185.230804 84.692421,192.593491 87.815292,196.362366 
	C93.081612,202.718079 97.858063,209.479675 102.840530,216.070587 
	C102.591606,216.536240 102.342682,217.001892 102.093750,217.467545 
	C98.324509,216.291748 94.555260,215.115967 90.341057,213.541367 
	C89.191498,212.804352 88.486908,212.466171 87.782310,212.127975 
z"/>
<path fill="#F7FBFD" opacity="1.000000" stroke="none" 
	d="
M217.094711,203.986374 
	C217.095200,205.049194 217.095688,206.112015 217.050262,207.829834 
	C217.005325,208.659821 217.006302,208.834778 217.007294,209.009750 
	C216.711365,209.754059 216.415436,210.498352 215.654724,211.608490 
	C213.751099,213.621826 212.312256,215.269333 210.873413,216.916840 
	C208.760590,218.486145 206.647766,220.055450 203.964325,221.855499 
	C202.856018,222.668045 202.318314,223.249847 201.780609,223.831665 
	C201.274475,224.033035 200.768341,224.234406 199.853821,224.755066 
	C199.231720,225.334824 199.018021,225.595261 198.804291,225.855682 
	C198.804291,225.855682 198.407654,225.930710 197.910690,225.999725 
	C196.949036,226.409241 196.484344,226.749741 196.019653,227.090256 
	C195.565750,227.081467 195.111862,227.072693 194.276581,226.661255 
	C192.887787,222.157913 191.880371,218.057251 190.872955,213.956573 
	C191.468292,213.460587 192.063614,212.964584 193.157166,212.199677 
	C194.520203,211.016724 195.385025,210.102676 196.249847,209.188629 
	C196.249832,209.188629 196.632294,209.136734 197.145660,209.047119 
	C198.773926,207.972534 199.888809,206.987549 201.003693,206.002563 
	C201.003693,206.002563 201.000000,206.000000 201.344482,205.966492 
	C202.825272,204.977966 203.961548,204.022980 205.097839,203.067978 
	C208.608749,202.276978 211.585938,198.156647 215.929993,201.955902 
	C216.446503,203.028473 216.770599,203.507431 217.094711,203.986374 
z"/>
<path fill="#F5FAFC" opacity="1.000000" stroke="none" 
	d="
M176.000000,185.771942 
	C182.857941,187.906860 189.458313,190.233429 195.944305,192.844177 
	C196.309280,192.991089 196.272491,196.100311 195.502258,196.766296 
	C192.003250,199.791885 188.223679,202.506516 184.425995,205.162827 
	C183.571945,205.760178 182.033981,206.176178 181.162857,205.818481 
	C176.766235,204.013153 172.485977,201.924408 167.813309,199.773254 
	C170.626740,194.879776 173.172241,190.452301 176.000000,185.771942 
z"/>
<path fill="#ABC8EF" opacity="1.000000" stroke="none" 
	d="
M113.300781,298.351624 
	C121.145828,296.779205 129.240097,295.130249 137.414566,294.461060 
	C139.141083,294.319702 142.386581,297.510529 142.823074,299.605469 
	C144.304214,306.714050 144.840042,314.019562 145.679810,321.653625 
	C144.420288,319.320374 142.742111,316.684692 142.132553,313.821472 
	C141.317459,309.993011 141.390274,305.981720 140.970932,302.060822 
	C140.602386,298.614563 138.929337,296.578522 135.107071,296.978271 
	C129.716843,297.542114 124.320625,298.054657 118.920784,298.516815 
	C117.149956,298.668427 115.359863,298.594849 113.300781,298.351624 
z"/>
<path fill="#ABC8EF" opacity="1.000000" stroke="none" 
	d="
M128.940521,231.532440 
	C111.531235,231.792252 94.950882,227.703842 79.104729,220.466278 
	C77.636024,219.795471 76.357239,218.708817 74.843628,217.502350 
	C81.302414,219.570450 87.979378,221.772400 94.495842,224.376007 
	C103.410683,227.937851 112.647514,229.049240 122.153481,229.118393 
	C124.395195,229.134689 126.627472,230.448959 128.940521,231.532440 
z"/>
<path fill="#ABC8EF" opacity="1.000000" stroke="none" 
	d="
M84.021828,245.461899 
	C93.493523,248.876404 94.239601,252.601852 87.464401,260.128876 
	C82.959579,265.133514 78.926628,270.562927 74.407043,276.000763 
	C75.674644,272.989471 76.876167,269.550110 78.842201,266.624512 
	C81.661972,262.428558 85.354828,258.800659 87.985832,254.507858 
	C88.770920,253.226929 87.466911,250.445358 86.699188,248.519073 
	C86.267479,247.435883 84.976082,246.695328 84.021828,245.461899 
z"/>
<path fill="#ABC8EF" opacity="1.000000" stroke="none" 
	d="
M40.659882,212.259216 
	C47.387375,222.379532 57.309048,228.805527 67.266991,235.196167 
	C68.215660,235.804962 69.076057,236.551315 70.102753,237.551147 
	C61.573109,236.418945 56.141136,229.749237 49.595093,224.946884 
	C46.693760,222.818390 44.211739,220.022308 41.901344,217.229797 
	C40.922993,216.047287 40.876202,214.094025 40.659882,212.259216 
z"/>
<path fill="#ABC8EF" opacity="1.000000" stroke="none" 
	d="
M79.032318,294.400055 
	C87.675598,300.168823 97.615501,297.586090 107.573639,298.191284 
	C107.327522,298.841034 106.602234,299.903259 105.907005,299.883911 
	C98.645096,299.682098 91.360298,299.566681 84.148987,298.797668 
	C82.333885,298.604095 80.758446,296.163086 79.032318,294.400055 
z"/>
<path fill="#ABC8EF" opacity="1.000000" stroke="none" 
	d="
M125.690697,276.651917 
	C122.934746,277.197266 119.808159,277.983643 116.873299,277.529907 
	C115.161140,277.265259 112.968086,275.253632 112.466347,273.584564 
	C112.078926,272.295776 113.583481,269.731079 114.966309,268.782776 
	C117.046318,267.356384 119.755020,266.846710 122.589478,265.938232 
	C121.894333,266.630005 120.663750,267.183014 119.749054,268.063965 
	C118.087494,269.664246 116.613785,271.459534 115.061676,273.173462 
	C116.862076,274.116302 118.583412,275.299591 120.487915,275.925842 
	C122.009834,276.426331 123.754669,276.248871 125.690697,276.651917 
z"/>
<path fill="#ABC8EF" opacity="1.000000" stroke="none" 
	d="
M161.397278,310.656250 
	C160.448334,306.176849 159.912628,301.370850 159.049362,296.624451 
	C158.262573,292.298615 157.120483,288.037384 156.118164,283.362793 
	C156.992325,283.608643 158.571060,284.147736 158.669220,284.884155 
	C159.798584,293.357361 160.703308,301.860474 161.397278,310.656250 
z"/>
<path fill="#ABC8EF" opacity="1.000000" stroke="none" 
	d="
M149.082642,333.287415 
	C157.116348,335.636475 159.017960,334.086761 160.806152,323.292511 
	C162.630142,327.676971 161.541107,332.922150 158.232925,334.772003 
	C155.103073,336.522125 151.766083,337.215363 149.082642,333.287415 
z"/>
<path fill="#ABC8EF" opacity="1.000000" stroke="none" 
	d="
M73.942368,216.734650 
	C69.641136,214.322784 65.319641,211.546265 60.897675,208.442093 
	C65.172165,210.866302 69.547134,213.618149 73.942368,216.734650 
z"/>
<path fill="#ABC8EF" opacity="1.000000" stroke="none" 
	d="
M124.126694,265.885071 
	C128.570953,262.901276 133.411560,259.968964 138.601562,256.975220 
	C134.141647,259.921387 129.332336,262.928986 124.126694,265.885071 
z"/>
<path fill="#ABC8EF" opacity="1.000000" stroke="none" 
	d="
M155.921951,281.759491 
	C151.793015,280.571075 147.658890,279.010590 143.283401,277.159790 
	C148.615936,275.215851 152.989227,276.750488 155.921951,281.759491 
z"/>
<path fill="#B5CFEF" opacity="1.000000" stroke="none" 
	d="
M190.543274,214.020355 
	C191.880371,218.057251 192.887787,222.157913 193.937012,226.635895 
	C189.706833,223.891953 187.801697,217.350052 190.543274,214.020355 
z"/>
<path fill="#ABC8EF" opacity="1.000000" stroke="none" 
	d="
M134.841873,246.904358 
	C130.418991,243.818924 130.427780,238.753067 130.008728,233.419296 
	C130.638870,233.439224 131.637619,233.779068 131.797668,234.352859 
	C132.919617,238.375000 133.868423,242.445465 134.841873,246.904358 
z"/>
<path fill="#B1CCEF" opacity="1.000000" stroke="none" 
	d="
M179.942505,25.671963 
	C176.320709,24.304941 172.647842,22.584280 168.831299,20.548948 
	C172.422211,21.928961 176.156830,23.623642 179.942505,25.671963 
z"/>
<path fill="#ABC8EF" opacity="1.000000" stroke="none" 
	d="
M59.970943,207.621460 
	C57.155979,206.477295 54.302032,204.986237 51.227493,203.235931 
	C55.550266,201.152466 57.446121,204.826096 59.970943,207.621460 
z"/>
<path fill="#ABC8EF" opacity="1.000000" stroke="none" 
	d="
M46.737808,202.645874 
	C45.132385,204.463501 43.303783,206.034653 41.193916,207.789047 
	C40.189198,204.064011 41.349300,202.909927 46.737808,202.645874 
z"/>
<path fill="#ABC8EF" opacity="1.000000" stroke="none" 
	d="
M73.553375,278.049316 
	C73.889633,280.368927 73.885239,282.759979 73.812614,285.595398 
	C69.738617,283.657166 70.963882,280.923340 73.553375,278.049316 
z"/>
<path fill="#B1CCEF" opacity="1.000000" stroke="none" 
	d="
M153.682404,19.221725 
	C155.593796,20.787130 157.275024,22.549324 158.997375,24.648411 
	C157.176422,23.129709 155.314331,21.274113 153.682404,19.221725 
z"/>
<path fill="#B1CCEF" opacity="1.000000" stroke="none" 
	d="
M187.963821,30.611095 
	C185.683075,29.560711 183.347839,28.174437 180.893890,26.472813 
	C183.153244,27.530046 185.531281,28.902626 187.963821,30.611095 
z"/>
<path fill="#B1CCEF" opacity="1.000000" stroke="none" 
	d="
M184.073975,50.810211 
	C185.876038,49.509392 188.066742,48.255741 190.628693,46.994820 
	C188.820847,48.277489 186.641739,49.567432 184.073975,50.810211 
z"/>
<path fill="#ABC8EF" opacity="1.000000" stroke="none" 
	d="
M75.208496,241.206726 
	C77.402489,241.974701 79.712013,243.073822 82.166611,244.488037 
	C79.982460,243.714722 77.653244,242.626297 75.208496,241.206726 
z"/>
<path fill="#B5CFEF" opacity="1.000000" stroke="none" 
	d="
M211.231766,216.915100 
	C212.312256,215.269333 213.751099,213.621826 215.509979,211.876907 
	C214.416718,213.490784 213.003418,215.202057 211.231766,216.915100 
z"/>
<path fill="#B1CCEF" opacity="1.000000" stroke="none" 
	d="
M195.040634,36.498123 
	C193.378082,35.482254 191.697021,34.109840 189.938232,32.413498 
	C191.581055,33.440243 193.301590,34.790909 195.040634,36.498123 
z"/>
<path fill="#B1CCEF" opacity="1.000000" stroke="none" 
	d="
M172.007294,43.349297 
	C173.326050,44.752579 174.634750,46.539562 175.957855,48.671005 
	C174.647232,47.254646 173.322250,45.493820 172.007294,43.349297 
z"/>
<path fill="#ABC8EF" opacity="1.000000" stroke="none" 
	d="
M138.878296,252.880890 
	C137.615219,252.045364 136.375839,250.847229 135.130951,249.309494 
	C136.384277,250.152679 137.643143,251.335480 138.878296,252.880890 
z"/>
<path fill="#B5CFEF" opacity="1.000000" stroke="none" 
	d="
M204.725739,203.046539 
	C203.961548,204.022980 202.825272,204.977966 201.345688,205.968597 
	C202.119461,205.011185 203.236542,204.018143 204.725739,203.046539 
z"/>
<path fill="#ABC8EF" opacity="1.000000" stroke="none" 
	d="
M71.040222,238.373535 
	C72.311089,238.766464 73.632431,239.497650 75.035599,240.547760 
	C73.775177,240.148392 72.432930,239.430115 71.040222,238.373535 
z"/>
<path fill="#ABC8EF" opacity="1.000000" stroke="none" 
	d="
M145.774887,326.178650 
	C146.623093,327.122833 147.227112,328.252869 147.792206,329.713104 
	C147.012421,328.817017 146.271561,327.590759 145.774887,326.178650 
z"/>
<path fill="#B5CFEF" opacity="1.000000" stroke="none" 
	d="
M200.639221,206.001068 
	C199.888809,206.987549 198.773926,207.972534 197.330063,208.990204 
	C198.092316,208.015106 199.183533,207.007324 200.639221,206.001068 
z"/>
<path fill="#B1CCEF" opacity="1.000000" stroke="none" 
	d="
M161.113815,28.156094 
	C162.054642,28.653254 162.976517,29.507273 163.919174,30.696817 
	C162.991592,30.192545 162.043228,29.352749 161.113815,28.156094 
z"/>
<path fill="#B5CFEF" opacity="1.000000" stroke="none" 
	d="
M195.888443,209.152863 
	C195.385025,210.102676 194.520203,211.016724 193.320770,211.958160 
	C193.833130,211.029419 194.680084,210.073273 195.888443,209.152863 
z"/>
<path fill="#B5CFEF" opacity="1.000000" stroke="none" 
	d="
M196.197449,227.302063 
	C196.484344,226.749741 196.949036,226.409241 197.718658,226.061874 
	C197.474152,226.541306 196.924698,227.027588 196.197449,227.302063 
z"/>
<path fill="#B1CCEF" opacity="1.000000" stroke="none" 
	d="
M164.984283,19.455359 
	C164.371902,19.428593 163.680756,19.093208 162.876129,18.462091 
	C163.476929,18.493155 164.191223,18.819948 164.984283,19.455359 
z"/>
<path fill="#ABC8EF" opacity="1.000000" stroke="none" 
	d="
M140.982346,276.548004 
	C140.573410,276.863617 140.111115,276.904968 139.305374,276.878479 
	C139.617615,276.631683 140.273300,276.452728 140.982346,276.548004 
z"/>
<path fill="#B5CFEF" opacity="1.000000" stroke="none" 
	d="
M202.121445,223.853699 
	C202.318314,223.249847 202.856018,222.668045 203.708252,222.058807 
	C203.502609,222.646179 202.982452,223.260956 202.121445,223.853699 
z"/>
<path fill="#E5F2FC" opacity="1.000000" stroke="none" 
	d="
M87.891975,212.423309 
	C88.486908,212.466171 89.191498,212.804352 89.968994,213.447418 
	C89.361809,213.407745 88.681725,213.063187 87.891975,212.423309 
z"/>
<path fill="#B1CCEF" opacity="1.000000" stroke="none" 
	d="
M165.067535,33.235703 
	C165.668152,33.400635 166.281631,33.893353 166.914642,34.704979 
	C166.316223,34.537086 165.698303,34.050285 165.067535,33.235703 
z"/>
<path fill="#B1CCEF" opacity="1.000000" stroke="none" 
	d="
M195.026184,45.797844 
	C195.237289,45.181194 195.800293,44.608994 196.681396,44.007027 
	C196.459045,44.598934 195.918579,45.220612 195.026184,45.797844 
z"/>
<path fill="#B5CFEF" opacity="1.000000" stroke="none" 
	d="
M217.302734,203.812164 
	C216.770599,203.507431 216.446503,203.028473 216.149261,202.244293 
	C216.620987,202.505371 217.065872,203.071671 217.302734,203.812164 
z"/>
<path fill="#ABC8EF" opacity="1.000000" stroke="none" 
	d="
M75.174805,291.036926 
	C75.813820,291.202850 76.424385,291.736450 77.127243,292.571838 
	C76.528481,292.384003 75.837410,291.894318 75.174805,291.036926 
z"/>
<path fill="#B1CCEF" opacity="1.000000" stroke="none" 
	d="
M156.022400,16.621693 
	C155.863388,16.872215 155.677109,16.892651 155.215790,16.850937 
	C155.135956,16.414448 155.331131,16.040104 155.526306,15.665760 
	C155.682587,15.907710 155.838852,16.149660 156.022400,16.621693 
z"/>
<path fill="#B5CFEF" opacity="1.000000" stroke="none" 
	d="
M199.068649,225.795135 
	C199.018021,225.595261 199.231720,225.334824 199.675720,224.965179 
	C199.714996,225.148834 199.523987,225.441696 199.068649,225.795135 
z"/>
<path fill="#B5CFEF" opacity="1.000000" stroke="none" 
	d="
M217.175903,208.926971 
	C217.006302,208.834778 217.005325,208.659821 217.060684,208.228271 
	C217.261551,208.159653 217.426590,208.336731 217.536194,208.543228 
	C217.563705,208.595032 217.413208,208.741333 217.175903,208.926971 
z"/>
</svg>